# Blender 3.5.1
# www.blender.org
o BoreholeTop
v 0.000000 0.000000 -1.000000
v -0.195090 0.000000 -0.980785
v -0.382683 0.000000 -0.923880
v -0.555570 0.000000 -0.831470
v -0.707107 0.000000 -0.707107
v -0.831470 0.000000 -0.555570
v -0.923880 0.000000 -0.382683
v -0.980785 0.000000 -0.195090
v -1.000000 0.000000 0.000000
v -0.980785 0.000000 0.195090
v -0.923880 0.000000 0.382683
v -0.831470 0.000000 0.555570
v -0.707107 0.000000 0.707107
v -0.555570 0.000000 0.831470
v -0.382683 0.000000 0.923880
v -0.195090 0.000000 0.980785
v 0.000000 0.000000 1.000000
v 0.195090 0.000000 0.980785
v 0.382683 0.000000 0.923880
v 0.555570 0.000000 0.831470
v 0.707107 0.000000 0.707107
v 0.831470 0.000000 0.555570
v 0.923880 0.000000 0.382683
v 0.980785 0.000000 0.195090
v 1.000000 0.000000 0.000000
v 0.980785 0.000000 -0.195090
v 0.923880 0.000000 -0.382683
v 0.831470 0.000000 -0.555570
v 0.707107 0.000000 -0.707107
v 0.555570 0.000000 -0.831470
v 0.382683 0.000000 -0.923880
v 0.195090 0.000000 -0.980785
v 0.000000 0.000000 -0.800000
v -0.156072 0.000000 -0.784628
v -0.306147 0.000000 -0.739104
v -0.444456 0.000000 -0.665176
v -0.565685 0.000000 -0.565685
v -0.665176 0.000000 -0.444456
v -0.739104 0.000000 -0.306147
v -0.784628 0.000000 -0.156072
v -0.800000 0.000000 0.000000
v -0.784628 0.000000 0.156072
v -0.739104 0.000000 0.306147
v -0.665176 0.000000 0.444456
v -0.565685 0.000000 0.565685
v -0.444456 0.000000 0.665176
v -0.306147 0.000000 0.739104
v -0.156072 0.000000 0.784628
v 0.000000 0.000000 0.800000
v 0.156072 0.000000 0.784628
v 0.306147 0.000000 0.739104
v 0.444456 0.000000 0.665176
v 0.565685 0.000000 0.565685
v 0.665176 0.000000 0.444456
v 0.739104 0.000000 0.306147
v 0.784628 0.000000 0.156072
v 0.800000 0.000000 0.000000
v 0.784628 0.000000 -0.156072
v 0.739104 0.000000 -0.306147
v 0.665176 0.000000 -0.444456
v 0.565685 0.000000 -0.565685
v 0.444456 0.000000 -0.665176
v 0.306147 0.000000 -0.739104
v 0.156072 0.000000 -0.784628
v -0.195090 1.000000 -0.980785
v 0.000000 1.000000 -1.000000
v -0.382683 1.000000 -0.923880
v -0.555570 1.000000 -0.831470
v -0.707107 1.000000 -0.707107
v -0.831470 1.000000 -0.555570
v -0.923880 1.000000 -0.382683
v -0.980785 1.000000 -0.195090
v -1.000000 1.000000 0.000000
v -0.980785 1.000000 0.195090
v -0.923880 1.000000 0.382683
v -0.831470 1.000000 0.555570
v -0.707107 1.000000 0.707107
v -0.555570 1.000000 0.831470
v -0.382683 1.000000 0.923880
v -0.195090 1.000000 0.980785
v 0.000000 1.000000 1.000000
v 0.195090 1.000000 0.980785
v 0.382683 1.000000 0.923880
v 0.555570 1.000000 0.831470
v 0.707107 1.000000 0.707107
v 0.831470 1.000000 0.555570
v 0.923880 1.000000 0.382683
v 0.980785 1.000000 0.195090
v 1.000000 1.000000 0.000000
v 0.980785 1.000000 -0.195090
v 0.923880 1.000000 -0.382683
v 0.831470 1.000000 -0.555570
v 0.707107 1.000000 -0.707107
v 0.555570 1.000000 -0.831470
v 0.382683 1.000000 -0.923880
v 0.195090 1.000000 -0.980785
v -0.156072 1.000000 -0.784628
v 0.000000 1.000000 -0.800000
v -0.306147 1.000000 -0.739104
v -0.444456 1.000000 -0.665176
v -0.565685 1.000000 -0.565685
v -0.665176 1.000000 -0.444456
v -0.739104 1.000000 -0.306147
v -0.784628 1.000000 -0.156072
v -0.800000 1.000000 0.000000
v -0.784628 1.000000 0.156072
v -0.739104 1.000000 0.306147
v -0.665176 1.000000 0.444456
v -0.565685 1.000000 0.565685
v -0.444456 1.000000 0.665176
v -0.306147 1.000000 0.739104
v -0.156072 1.000000 0.784628
v 0.000000 1.000000 0.800000
v 0.156072 1.000000 0.784628
v 0.306147 1.000000 0.739104
v 0.444456 1.000000 0.665176
v 0.565685 1.000000 0.565685
v 0.665176 1.000000 0.444456
v 0.739104 1.000000 0.306147
v 0.784628 1.000000 0.156072
v 0.800000 1.000000 0.000000
v 0.784628 1.000000 -0.156072
v 0.739104 1.000000 -0.306147
v 0.665176 1.000000 -0.444456
v 0.565685 1.000000 -0.565685
v 0.444456 1.000000 -0.665176
v 0.306147 1.000000 -0.739104
v 0.156072 1.000000 -0.784628
v -0.382683 0.663397 0.923880
v -0.555570 0.663397 0.831470
v -0.195090 0.663397 0.980785
v 0.000000 0.663397 1.000000
v 0.195090 0.663397 0.980785
v 0.382683 0.663397 0.923880
v 0.555570 0.663397 0.831470
v 0.707107 0.663397 0.707107
v 0.831470 0.663397 0.555570
v 0.923880 0.663397 0.382683
v 0.980785 0.663397 0.195090
v 1.000000 0.663397 0.000000
v 0.980785 0.663397 -0.195090
v 0.923880 0.663397 -0.382683
v 0.831470 0.663397 -0.555570
v -0.195090 0.663397 -0.980785
v 0.000000 0.663397 -1.000000
v 0.707107 0.663397 -0.707107
v -0.382683 0.663397 -0.923880
v 0.555570 0.663397 -0.831470
v -0.555570 0.663397 -0.831470
v 0.382683 0.663397 -0.923880
v -0.707107 0.663397 -0.707107
v 0.195090 0.663397 -0.980785
v -0.831470 0.663397 -0.555570
v -0.923880 0.663397 -0.382683
v -0.980785 0.663397 -0.195090
v -1.000000 0.663397 0.000000
v -0.980785 0.663397 0.195090
v -0.923880 0.663397 0.382683
v -0.831470 0.663397 0.555570
v -0.707107 0.663397 0.707107
v -0.214599 1.000000 -1.078864
v 0.000000 1.000000 -1.100000
v -0.420952 1.000000 -1.016267
v -0.611127 1.000000 -0.914617
v -0.777817 1.000000 -0.777817
v -0.914617 1.000000 -0.611127
v -1.016267 1.000000 -0.420952
v -1.078864 1.000000 -0.214599
v -1.100000 1.000000 0.000000
v -1.078864 1.000000 0.214599
v -1.016267 1.000000 0.420952
v -0.914617 1.000000 0.611127
v -0.777817 1.000000 0.777817
v -0.611127 1.000000 0.914617
v -0.420952 1.000000 1.016267
v -0.214599 1.000000 1.078864
v 0.000000 1.000000 1.100000
v 0.214599 1.000000 1.078864
v 0.420952 1.000000 1.016267
v 0.611127 1.000000 0.914617
v 0.777817 1.000000 0.777817
v 0.914617 1.000000 0.611127
v 1.016267 1.000000 0.420952
v 1.078864 1.000000 0.214599
v 1.100000 1.000000 0.000000
v 1.078864 1.000000 -0.214599
v 1.016267 1.000000 -0.420952
v 0.914617 1.000000 -0.611127
v 0.777817 1.000000 -0.777817
v 0.611127 1.000000 -0.914617
v 0.420952 1.000000 -1.016267
v 0.214599 1.000000 -1.078864
v -0.420952 0.663397 1.016267
v -0.214599 0.663397 1.078864
v 0.000000 0.663397 1.100000
v 0.214599 0.663397 1.078864
v 0.420952 0.663397 1.016267
v 0.611127 0.663397 0.914617
v 0.777817 0.663397 0.777817
v 0.914617 0.663397 0.611127
v 1.016267 0.663397 0.420952
v 1.078864 0.663397 0.214599
v 1.100000 0.663397 0.000000
v 1.078864 0.663397 -0.214599
v 1.016267 0.663397 -0.420952
v 0.914617 0.663397 -0.611127
v -0.214599 0.663397 -1.078864
v 0.777817 0.663397 -0.777817
v -0.420952 0.663397 -1.016267
v 0.611127 0.663397 -0.914617
v -0.611127 0.663397 -0.914617
v 0.420952 0.663397 -1.016267
v -0.777817 0.663397 -0.777817
v 0.214599 0.663397 -1.078864
v -0.914617 0.663397 -0.611127
v -1.016267 0.663397 -0.420952
v -1.078864 0.663397 -0.214599
v -1.100000 0.663397 0.000000
v -1.078864 0.663397 0.214599
v -1.016267 0.663397 0.420952
v -0.914617 0.663397 0.611127
v -0.777817 0.663397 0.777817
v -0.611127 0.663397 0.914617
v 0.000000 0.663397 -1.100000
vn -0.0000 -1.0000 -0.0000
vn -0.0000 1.0000 -0.0000
vn 0.9952 -0.0000 0.0980
vn 0.9952 -0.0000 -0.0980
vn 0.9569 -0.0000 -0.2903
vn 0.8819 -0.0000 -0.4714
vn 0.7730 -0.0000 -0.6344
vn 0.6344 -0.0000 -0.7730
vn 0.4714 -0.0000 -0.8819
vn 0.2903 -0.0000 -0.9569
vn 0.0980 -0.0000 -0.9952
vn -0.0980 -0.0000 -0.9952
vn -0.2903 -0.0000 -0.9569
vn -0.4714 -0.0000 -0.8819
vn -0.6344 -0.0000 -0.7730
vn -0.7730 -0.0000 -0.6344
vn -0.8819 -0.0000 -0.4714
vn -0.9569 -0.0000 -0.2903
vn -0.9952 -0.0000 -0.0980
vn -0.9952 -0.0000 0.0980
vn -0.9569 -0.0000 0.2903
vn -0.8819 -0.0000 0.4714
vn 0.0980 -0.0000 0.9952
vn -0.7730 -0.0000 0.6344
vn 0.2903 -0.0000 0.9569
vn -0.6344 -0.0000 0.7730
vn 0.4714 -0.0000 0.8819
vn -0.4714 -0.0000 0.8819
vn 0.6344 -0.0000 0.7730
vn -0.2903 -0.0000 0.9569
vn 0.7730 -0.0000 0.6344
vn -0.0980 -0.0000 0.9952
vn 0.8819 -0.0000 0.4714
vn 0.9569 -0.0000 0.2903
vt 0.000000 0.000000
vt 0.000000 0.000000
vt 0.000000 0.000000
vt 0.000000 0.000000
vt 0.000000 0.000000
vt 0.000000 0.000000
vt 0.000000 0.000000
vt 0.000000 0.000000
vt 0.000000 0.000000
vt 0.000000 0.000000
vt 0.000000 0.000000
vt 0.000000 0.000000
vt 0.000000 0.000000
vt 0.000000 0.000000
vt 0.000000 0.000000
vt 0.000000 0.000000
vt 0.000000 0.000000
vt 0.000000 0.000000
vt 0.000000 0.000000
vt 0.000000 0.000000
vt 0.000000 0.000000
vt 0.000000 0.000000
vt 0.000000 0.000000
vt 0.000000 0.000000
vt 0.000000 0.000000
vt 0.000000 0.000000
vt 0.000000 0.000000
vt 0.000000 0.000000
vt 0.000000 0.000000
vt 0.000000 0.000000
vt 0.000000 0.000000
vt 0.000000 0.000000
vt 0.000000 0.000000
vt 0.000000 0.000000
vt 0.000000 0.000000
vt 0.000000 0.000000
vt 0.000000 0.000000
vt 0.000000 0.000000
vt 0.000000 0.000000
vt 0.000000 0.000000
vt 0.000000 0.000000
vt 0.000000 0.000000
vt 0.000000 0.000000
vt 0.000000 0.000000
vt 0.000000 0.000000
vt 0.000000 0.000000
vt 0.000000 0.000000
vt 0.000000 0.000000
vt 0.000000 0.000000
vt 0.000000 0.000000
vt 0.000000 0.000000
vt 0.000000 0.000000
vt 0.000000 0.000000
vt 0.000000 0.000000
vt 0.000000 0.000000
vt 0.000000 0.000000
vt 0.000000 0.000000
vt 0.000000 0.000000
vt 0.000000 0.000000
vt 0.000000 0.000000
vt 0.000000 0.000000
vt 0.000000 0.000000
vt 0.000000 0.000000
vt 0.000000 0.000000
vt 0.000000 0.000000
vt 0.000000 0.000000
vt 0.000000 0.000000
vt 0.000000 0.000000
vt 0.000000 0.000000
vt 0.000000 0.000000
vt 0.000000 0.000000
vt 0.000000 0.000000
vt 0.000000 0.000000
vt 0.000000 0.000000
vt 0.000000 0.000000
vt 0.000000 0.000000
vt 0.000000 0.000000
vt 0.000000 0.000000
vt 0.000000 0.000000
vt 0.000000 0.000000
vt 0.000000 0.000000
vt 0.000000 0.000000
vt 0.000000 0.000000
vt 0.000000 0.000000
vt 0.000000 0.000000
vt 0.000000 0.000000
vt 0.000000 0.000000
vt 0.000000 0.000000
vt 0.000000 0.000000
vt 0.000000 0.000000
vt 0.000000 0.000000
vt 0.000000 0.000000
vt 0.000000 0.000000
vt 0.000000 0.000000
vt 0.000000 0.000000
vt 0.000000 0.000000
vt 0.000000 0.000000
vt 0.000000 0.000000
vt 0.000000 0.000000
vt 0.000000 0.000000
vt 0.000000 0.000000
vt 0.000000 0.000000
vt 0.000000 0.000000
vt 0.000000 0.000000
vt 0.000000 0.000000
vt 0.000000 0.000000
vt 0.000000 0.000000
vt 0.000000 0.000000
vt 0.000000 0.000000
vt 0.000000 0.000000
vt 0.000000 0.000000
vt 0.000000 0.000000
vt 0.000000 0.000000
vt 0.000000 0.000000
vt 0.000000 0.000000
vt 0.000000 0.000000
vt 0.000000 0.000000
vt 0.000000 0.000000
vt 0.000000 0.000000
vt 0.000000 0.000000
vt 0.000000 0.000000
vt 0.000000 0.000000
vt 0.000000 0.000000
vt 0.000000 0.000000
vt 0.000000 0.000000
vt 0.000000 0.000000
vt 0.000000 0.000000
vt 0.000000 0.000000
vt 0.000000 0.000000
vt 0.000000 0.000000
vt 0.000000 0.000000
vt 0.000000 0.000000
vt 0.000000 0.000000
vt 0.000000 0.000000
vt 0.000000 0.000000
vt 0.000000 0.000000
vt 0.000000 0.000000
vt 0.000000 0.000000
vt 0.000000 0.000000
vt 0.000000 0.000000
vt 0.000000 0.000000
vt 0.000000 0.000000
vt 0.000000 0.000000
vt 0.000000 0.000000
vt 0.000000 0.000000
vt 0.000000 0.000000
vt 0.000000 0.000000
vt 0.000000 0.000000
vt 0.000000 0.000000
vt 0.000000 0.000000
vt 0.000000 0.000000
vt 0.000000 0.000000
vt 0.000000 0.000000
vt 0.000000 0.000000
vt 0.000000 0.000000
vt 0.000000 0.000000
vt 0.000000 0.000000
vt 0.000000 0.000000
vt 0.000000 0.000000
vt 0.000000 0.000000
vt 0.000000 0.000000
vt 0.000000 0.000000
vt 0.000000 0.000000
vt 0.000000 0.000000
vt 0.000000 0.000000
vt 0.000000 0.000000
vt 0.000000 0.000000
vt 0.000000 0.000000
vt 0.000000 0.000000
vt 0.000000 0.000000
vt 0.000000 0.000000
vt 0.000000 0.000000
vt 0.000000 0.000000
vt 0.000000 0.000000
vt 0.000000 0.000000
vt 0.000000 0.000000
vt 0.000000 0.000000
vt 0.000000 0.000000
vt 0.000000 0.000000
vt 0.000000 0.000000
vt 0.000000 0.000000
vt 0.000000 0.000000
vt 0.000000 0.000000
vt 0.000000 0.000000
vt 0.000000 0.000000
vt 0.000000 0.000000
vt 0.000000 0.000000
vt 0.000000 0.000000
vt 0.000000 0.000000
vt 0.000000 0.000000
vt 0.000000 0.000000
vt 0.000000 0.000000
vt 0.000000 0.000000
vt 0.000000 0.000000
vt 0.000000 0.000000
vt 0.000000 0.000000
vt 0.000000 0.000000
vt 0.000000 0.000000
vt 0.000000 0.000000
vt 0.000000 0.000000
vt 0.000000 0.000000
vt 0.000000 0.000000
vt 0.000000 0.000000
vt 0.000000 0.000000
vt 0.000000 0.000000
vt 0.000000 0.000000
vt 0.000000 0.000000
vt 0.000000 0.000000
vt 0.000000 0.000000
vt 0.000000 0.000000
vt 0.000000 0.000000
vt 0.000000 0.000000
vt 0.000000 0.000000
vt 0.000000 0.000000
vt 0.000000 0.000000
vt 0.000000 0.000000
vt 0.000000 0.000000
vt 0.000000 0.000000
vt 0.000000 0.000000
vt 0.000000 0.000000
vt 0.000000 0.000000
vt 0.000000 0.000000
vt 0.000000 0.000000
vt 0.000000 0.000000
s 0
f 20/20/1 52/52/1 53/53/1 21/21/1
f 7/7/1 39/39/1 40/40/1 8/8/1
f 21/21/1 53/53/1 54/54/1 22/22/1
f 8/8/1 40/40/1 41/41/1 9/9/1
f 22/22/1 54/54/1 55/55/1 23/23/1
f 9/9/1 41/41/1 42/42/1 10/10/1
f 23/23/1 55/55/1 56/56/1 24/24/1
f 10/10/1 42/42/1 43/43/1 11/11/1
f 24/24/1 56/56/1 57/57/1 25/25/1
f 11/11/1 43/43/1 44/44/1 12/12/1
f 25/25/1 57/57/1 58/58/1 26/26/1
f 12/12/1 44/44/1 45/45/1 13/13/1
f 26/26/1 58/58/1 59/59/1 27/27/1
f 13/13/1 45/45/1 46/46/1 14/14/1
f 27/27/1 59/59/1 60/60/1 28/28/1
f 14/14/1 46/46/1 47/47/1 15/15/1
f 1/1/1 33/33/1 34/34/1 2/2/1
f 28/28/1 60/60/1 61/61/1 29/29/1
f 15/15/1 47/47/1 48/48/1 16/16/1
f 2/2/1 34/34/1 35/35/1 3/3/1
f 29/29/1 61/61/1 62/62/1 30/30/1
f 16/16/1 48/48/1 49/49/1 17/17/1
f 3/3/1 35/35/1 36/36/1 4/4/1
f 30/30/1 62/62/1 63/63/1 31/31/1
f 17/17/1 49/49/1 50/50/1 18/18/1
f 4/4/1 36/36/1 37/37/1 5/5/1
f 31/31/1 63/63/1 64/64/1 32/32/1
f 18/18/1 50/50/1 51/51/1 19/19/1
f 5/5/1 37/37/1 38/38/1 6/6/1
f 32/32/1 64/64/1 33/33/1 1/1/1
f 19/19/1 51/51/1 52/52/1 20/20/1
f 6/6/1 38/38/1 39/39/1 7/7/1
f 84/84/2 85/85/2 117/117/2 116/116/2
f 71/71/2 72/72/2 104/104/2 103/103/2
f 85/85/2 86/86/2 118/118/2 117/117/2
f 72/72/2 73/73/2 105/105/2 104/104/2
f 86/86/2 87/87/2 119/119/2 118/118/2
f 73/73/2 74/74/2 106/106/2 105/105/2
f 87/87/2 88/88/2 120/120/2 119/119/2
f 74/74/2 75/75/2 107/107/2 106/106/2
f 88/88/2 89/89/2 121/121/2 120/120/2
f 75/75/2 76/76/2 108/108/2 107/107/2
f 89/89/2 90/90/2 122/122/2 121/121/2
f 76/76/2 77/77/2 109/109/2 108/108/2
f 90/90/2 91/91/2 123/123/2 122/122/2
f 77/77/2 78/78/2 110/110/2 109/109/2
f 91/91/2 92/92/2 124/124/2 123/123/2
f 78/78/2 79/79/2 111/111/2 110/110/2
f 66/66/2 65/65/2 97/97/2 98/98/2
f 92/92/2 93/93/2 125/125/2 124/124/2
f 79/79/2 80/80/2 112/112/2 111/111/2
f 65/65/2 67/67/2 99/99/2 97/97/2
f 93/93/2 94/94/2 126/126/2 125/125/2
f 80/80/2 81/81/2 113/113/2 112/112/2
f 67/67/2 68/68/2 100/100/2 99/99/2
f 94/94/2 95/95/2 127/127/2 126/126/2
f 81/81/2 82/82/2 114/114/2 113/113/2
f 68/68/2 69/69/2 101/101/2 100/100/2
f 95/95/2 96/96/2 128/128/2 127/127/2
f 82/82/2 83/83/2 115/115/2 114/114/2
f 69/69/2 70/70/2 102/102/2 101/101/2
f 96/96/2 66/66/2 98/98/2 128/128/2
f 83/83/2 84/84/2 116/116/2 115/115/2
f 70/70/2 71/71/2 103/103/2 102/102/2
f 41/41/3 40/40/3 104/104/3 105/105/3
f 83/83/2 82/82/2 178/178/2 179/179/2
f 42/42/4 41/41/4 105/105/4 106/106/4
f 152/152/1 145/145/1 224/224/1 214/214/1
f 43/43/5 42/42/5 106/106/5 107/107/5
f 82/82/2 81/81/2 177/177/2 178/178/2
f 44/44/6 43/43/6 107/107/6 108/108/6
f 153/153/1 154/154/1 216/216/1 215/215/1
f 45/45/7 44/44/7 108/108/7 109/109/7
f 81/81/2 80/80/2 176/176/2 177/177/2
f 46/46/8 45/45/8 109/109/8 110/110/8
f 154/154/1 155/155/1 217/217/1 216/216/1
f 47/47/9 46/46/9 110/110/9 111/111/9
f 80/80/2 79/79/2 175/175/2 176/176/2
f 48/48/10 47/47/10 111/111/10 112/112/10
f 155/155/1 156/156/1 218/218/1 217/217/1
f 49/49/11 48/48/11 112/112/11 113/113/11
f 130/130/1 129/129/1 193/193/1 223/223/1
f 50/50/12 49/49/12 113/113/12 114/114/12
f 79/79/2 78/78/2 174/174/2 175/175/2
f 51/51/13 50/50/13 114/114/13 115/115/13
f 156/156/1 157/157/1 219/219/1 218/218/1
f 52/52/14 51/51/14 115/115/14 116/116/14
f 129/129/1 131/131/1 194/194/1 193/193/1
f 53/53/15 52/52/15 116/116/15 117/117/15
f 78/78/2 77/77/2 173/173/2 174/174/2
f 54/54/16 53/53/16 117/117/16 118/118/16
f 157/157/1 158/158/1 220/220/1 219/219/1
f 131/131/1 132/132/1 195/195/1 194/194/1
f 55/55/17 54/54/17 118/118/17 119/119/17
f 77/77/2 76/76/2 172/172/2 173/173/2
f 158/158/1 159/159/1 221/221/1 220/220/1
f 56/56/18 55/55/18 119/119/18 120/120/18
f 132/132/1 133/133/1 196/196/1 195/195/1
f 76/76/2 75/75/2 171/171/2 172/172/2
f 57/57/19 56/56/19 120/120/19 121/121/19
f 159/159/1 160/160/1 222/222/1 221/221/1
f 133/133/1 134/134/1 197/197/1 196/196/1
f 58/58/20 57/57/20 121/121/20 122/122/20
f 75/75/2 74/74/2 170/170/2 171/171/2
f 160/160/1 130/130/1 223/223/1 222/222/1
f 59/59/21 58/58/21 122/122/21 123/123/21
f 134/134/1 135/135/1 198/198/1 197/197/1
f 74/74/2 73/73/2 169/169/2 170/170/2
f 60/60/22 59/59/22 123/123/22 124/124/22
f 34/34/23 33/33/23 98/98/23 97/97/23
f 135/135/1 136/136/1 199/199/1 198/198/1
f 61/61/24 60/60/24 124/124/24 125/125/24
f 35/35/25 34/34/25 97/97/25 99/99/25
f 73/73/2 72/72/2 168/168/2 169/169/2
f 62/62/26 61/61/26 125/125/26 126/126/26
f 36/36/27 35/35/27 99/99/27 100/100/27
f 136/136/1 137/137/1 200/200/1 199/199/1
f 63/63/28 62/62/28 126/126/28 127/127/28
f 37/37/29 36/36/29 100/100/29 101/101/29
f 72/72/2 71/71/2 167/167/2 168/168/2
f 64/64/30 63/63/30 127/127/30 128/128/30
f 38/38/31 37/37/31 101/101/31 102/102/31
f 137/137/1 138/138/1 201/201/1 200/200/1
f 33/33/32 64/64/32 128/128/32 98/98/32
f 39/39/33 38/38/33 102/102/33 103/103/33
f 71/71/2 70/70/2 166/166/2 167/167/2
f 40/40/34 39/39/34 103/103/34 104/104/34
f 66/66/2 96/96/2 192/192/2 162/162/2
f 13/13/26 14/14/26 130/130/26 160/160/26
f 12/12/24 13/13/24 160/160/24 159/159/24
f 11/11/22 12/12/22 159/159/22 158/158/22
f 10/10/21 11/11/21 158/158/21 157/157/21
f 9/9/20 10/10/20 157/157/20 156/156/20
f 8/8/19 9/9/19 156/156/19 155/155/19
f 7/7/18 8/8/18 155/155/18 154/154/18
f 6/6/17 7/7/17 154/154/17 153/153/17
f 32/32/11 1/1/11 145/145/11 152/152/11
f 5/5/16 6/6/16 153/153/16 151/151/16
f 31/31/10 32/32/10 152/152/10 150/150/10
f 4/4/15 5/5/15 151/151/15 149/149/15
f 30/30/9 31/31/9 150/150/9 148/148/9
f 3/3/14 4/4/14 149/149/14 147/147/14
f 29/29/8 30/30/8 148/148/8 146/146/8
f 2/2/13 3/3/13 147/147/13 144/144/13
f 28/28/7 29/29/7 146/146/7 143/143/7
f 1/1/12 2/2/12 144/144/12 145/145/12
f 27/27/6 28/28/6 143/143/6 142/142/6
f 26/26/5 27/27/5 142/142/5 141/141/5
f 25/25/4 26/26/4 141/141/4 140/140/4
f 24/24/3 25/25/3 140/140/3 139/139/3
f 23/23/34 24/24/34 139/139/34 138/138/34
f 22/22/33 23/23/33 138/138/33 137/137/33
f 21/21/31 22/22/31 137/137/31 136/136/31
f 20/20/29 21/21/29 136/136/29 135/135/29
f 19/19/27 20/20/27 135/135/27 134/134/27
f 18/18/25 19/19/25 134/134/25 133/133/25
f 17/17/23 18/18/23 133/133/23 132/132/23
f 16/16/32 17/17/32 132/132/32 131/131/32
f 15/15/30 16/16/30 131/131/30 129/129/30
f 14/14/28 15/15/28 129/129/28 130/130/28
f 223/223/28 193/193/28 175/175/28 174/174/28
f 193/193/30 194/194/30 176/176/30 175/175/30
f 194/194/32 195/195/32 177/177/32 176/176/32
f 195/195/23 196/196/23 178/178/23 177/177/23
f 196/196/25 197/197/25 179/179/25 178/178/25
f 197/197/27 198/198/27 180/180/27 179/179/27
f 198/198/29 199/199/29 181/181/29 180/180/29
f 199/199/31 200/200/31 182/182/31 181/181/31
f 200/200/33 201/201/33 183/183/33 182/182/33
f 201/201/34 202/202/34 184/184/34 183/183/34
f 202/202/3 203/203/3 185/185/3 184/184/3
f 203/203/4 204/204/4 186/186/4 185/185/4
f 204/204/5 205/205/5 187/187/5 186/186/5
f 205/205/6 206/206/6 188/188/6 187/187/6
f 224/224/12 207/207/12 161/161/12 162/162/12
f 206/206/7 208/208/7 189/189/7 188/188/7
f 207/207/13 209/209/13 163/163/13 161/161/13
f 208/208/8 210/210/8 190/190/8 189/189/8
f 209/209/14 211/211/14 164/164/14 163/163/14
f 210/210/9 212/212/9 191/191/9 190/190/9
f 211/211/15 213/213/15 165/165/15 164/164/15
f 212/212/10 214/214/10 192/192/10 191/191/10
f 213/213/16 215/215/16 166/166/16 165/165/16
f 214/214/11 224/224/11 162/162/11 192/192/11
f 215/215/17 216/216/17 167/167/17 166/166/17
f 216/216/18 217/217/18 168/168/18 167/167/18
f 217/217/19 218/218/19 169/169/19 168/168/19
f 218/218/20 219/219/20 170/170/20 169/169/20
f 219/219/21 220/220/21 171/171/21 170/170/21
f 220/220/22 221/221/22 172/172/22 171/171/22
f 221/221/24 222/222/24 173/173/24 172/172/24
f 222/222/26 223/223/26 174/174/26 173/173/26
f 151/151/1 153/153/1 215/215/1 213/213/1
f 84/84/2 83/83/2 179/179/2 180/180/2
f 150/150/1 152/152/1 214/214/1 212/212/1
f 85/85/2 84/84/2 180/180/2 181/181/2
f 149/149/1 151/151/1 213/213/1 211/211/1
f 86/86/2 85/85/2 181/181/2 182/182/2
f 148/148/1 150/150/1 212/212/1 210/210/1
f 87/87/2 86/86/2 182/182/2 183/183/2
f 147/147/1 149/149/1 211/211/1 209/209/1
f 88/88/2 87/87/2 183/183/2 184/184/2
f 146/146/1 148/148/1 210/210/1 208/208/1
f 89/89/2 88/88/2 184/184/2 185/185/2
f 144/144/1 147/147/1 209/209/1 207/207/1
f 90/90/2 89/89/2 185/185/2 186/186/2
f 143/143/1 146/146/1 208/208/1 206/206/1
f 91/91/2 90/90/2 186/186/2 187/187/2
f 145/145/1 144/144/1 207/207/1 224/224/1
f 92/92/2 91/91/2 187/187/2 188/188/2
f 65/65/2 66/66/2 162/162/2 161/161/2
f 142/142/1 143/143/1 206/206/1 205/205/1
f 93/93/2 92/92/2 188/188/2 189/189/2
f 67/67/2 65/65/2 161/161/2 163/163/2
f 141/141/1 142/142/1 205/205/1 204/204/1
f 94/94/2 93/93/2 189/189/2 190/190/2
f 68/68/2 67/67/2 163/163/2 164/164/2
f 140/140/1 141/141/1 204/204/1 203/203/1
f 95/95/2 94/94/2 190/190/2 191/191/2
f 69/69/2 68/68/2 164/164/2 165/165/2
f 139/139/1 140/140/1 203/203/1 202/202/1
f 96/96/2 95/95/2 191/191/2 192/192/2
f 70/70/2 69/69/2 165/165/2 166/166/2
f 138/138/1 139/139/1 202/202/1 201/201/1
