# Blender 3.5.1
# www.blender.org
o Container
v 0.000000 -1.750000 -0.682243
v 0.000000 -1.682569 -0.750000
v 0.000000 -0.250000 -0.682243
v 0.000000 -0.317431 -0.750000
v 0.133099 -1.750000 -0.669134
v 0.146318 -1.682569 -0.735589
v 0.133099 -0.250000 -0.669134
v 0.146318 -0.317431 -0.735589
v 0.261083 -1.750000 -0.630310
v 0.287013 -1.682569 -0.692910
v 0.261083 -0.250000 -0.630310
v 0.287013 -0.317431 -0.692910
v 0.379034 -1.750000 -0.567264
v 0.416678 -1.682569 -0.623602
v 0.379034 -0.250000 -0.567264
v 0.416678 -0.317431 -0.623602
v 0.482418 -1.750000 -0.482418
v 0.530330 -1.682569 -0.530330
v 0.482418 -0.250000 -0.482418
v 0.530330 -0.317431 -0.530330
v 0.567264 -1.750000 -0.379034
v 0.623602 -1.682569 -0.416678
v 0.567264 -0.250000 -0.379034
v 0.623602 -0.317431 -0.416678
v 0.630310 -1.750000 -0.261083
v 0.692910 -1.682569 -0.287013
v 0.630310 -0.250000 -0.261083
v 0.692910 -0.317431 -0.287013
v 0.669134 -1.750000 -0.133099
v 0.735589 -1.682569 -0.146318
v 0.669134 -0.250000 -0.133099
v 0.735589 -0.317431 -0.146318
v 0.682243 -1.750000 -0.000000
v 0.750000 -1.682569 -0.000000
v 0.682243 -0.250000 0.000000
v 0.750000 -0.317431 -0.000000
v 0.669134 -1.750000 0.133099
v 0.735589 -1.682569 0.146318
v 0.669134 -0.250000 0.133099
v 0.735589 -0.317431 0.146318
v 0.630310 -1.750000 0.261083
v 0.692910 -1.682569 0.287013
v 0.630310 -0.250000 0.261083
v 0.692910 -0.317431 0.287013
v 0.567264 -1.750000 0.379034
v 0.623602 -1.682569 0.416678
v 0.567264 -0.250000 0.379034
v 0.623602 -0.317431 0.416678
v 0.482418 -1.750000 0.482418
v 0.530330 -1.682569 0.530330
v 0.482418 -0.250000 0.482418
v 0.530330 -0.317431 0.530330
v 0.379034 -1.750000 0.567264
v 0.416678 -1.682569 0.623602
v 0.379034 -0.250000 0.567264
v 0.416678 -0.317431 0.623602
v 0.261083 -1.750000 0.630310
v 0.287013 -1.682569 0.692910
v 0.261083 -0.250000 0.630310
v 0.287013 -0.317431 0.692910
v 0.133099 -1.750000 0.669134
v 0.146318 -1.682569 0.735589
v 0.133099 -0.250000 0.669134
v 0.146318 -0.317431 0.735589
v 0.000000 -1.750000 0.682243
v 0.000000 -1.682569 0.750000
v 0.000000 -0.250000 0.682243
v 0.000000 -0.317431 0.750000
v -0.133099 -1.750000 0.669134
v -0.146318 -1.682569 0.735589
v -0.133099 -0.250000 0.669134
v -0.146318 -0.317431 0.735589
v -0.261083 -1.750000 0.630310
v -0.287013 -1.682569 0.692910
v -0.261083 -0.250000 0.630310
v -0.287013 -0.317431 0.692910
v -0.379034 -1.750000 0.567264
v -0.416678 -1.682569 0.623602
v -0.379034 -0.250000 0.567264
v -0.416678 -0.317431 0.623602
v -0.482418 -1.750000 0.482418
v -0.530330 -1.682569 0.530330
v -0.482418 -0.250000 0.482418
v -0.530330 -0.317431 0.530330
v -0.567264 -1.750000 0.379034
v -0.623602 -1.682569 0.416678
v -0.567264 -0.250000 0.379034
v -0.623602 -0.317431 0.416678
v -0.630310 -1.750000 0.261083
v -0.692910 -1.682569 0.287013
v -0.630310 -0.250000 0.261083
v -0.692910 -0.317431 0.287013
v -0.669134 -1.750000 0.133099
v -0.735589 -1.682569 0.146318
v -0.669134 -0.250000 0.133099
v -0.735589 -0.317431 0.146318
v -0.682243 -1.750000 0.000000
v -0.750000 -1.682569 -0.000000
v -0.682243 -0.250000 -0.000000
v -0.750000 -0.317431 -0.000000
v -0.669134 -1.750000 -0.133099
v -0.735589 -1.682569 -0.146318
v -0.669134 -0.250000 -0.133099
v -0.735589 -0.317431 -0.146318
v -0.630310 -1.750000 -0.261083
v -0.692910 -1.682569 -0.287013
v -0.630310 -0.250000 -0.261083
v -0.692910 -0.317431 -0.287013
v -0.567264 -1.750000 -0.379034
v -0.623602 -1.682569 -0.416678
v -0.567264 -0.250000 -0.379034
v -0.623602 -0.317431 -0.416678
v -0.482418 -1.750000 -0.482418
v -0.530330 -1.682569 -0.530330
v -0.482418 -0.250000 -0.482418
v -0.530330 -0.317431 -0.530330
v -0.379034 -1.750000 -0.567264
v -0.416678 -1.682569 -0.623602
v -0.379034 -0.250000 -0.567264
v -0.416678 -0.317431 -0.623602
v -0.261083 -1.750000 -0.630310
v -0.287013 -1.682569 -0.692910
v -0.261083 -0.250000 -0.630310
v -0.287013 -0.317431 -0.692910
v -0.133099 -1.750000 -0.669134
v -0.146318 -1.682569 -0.735589
v -0.133099 -0.250000 -0.669134
v -0.146318 -0.317431 -0.735589
vn -0.0980 -0.0000 -0.9952
vn 0.4714 -0.0000 -0.8819
vn 0.6344 -0.0000 -0.7730
vn 0.7730 -0.0000 -0.6344
vn 0.8819 -0.0000 -0.4714
vn 0.9569 -0.0000 -0.2903
vn 0.9952 -0.0000 -0.0980
vn 0.9952 -0.0000 0.0980
vn 0.9569 -0.0000 0.2903
vn 0.8819 -0.0000 0.4714
vn 0.7730 -0.0000 0.6344
vn 0.6344 -0.0000 0.7730
vn 0.4714 -0.0000 0.8819
vn 0.2903 -0.0000 0.9569
vn 0.0980 -0.0000 0.9952
vn -0.0980 -0.0000 0.9952
vn -0.2903 -0.0000 0.9569
vn -0.4714 -0.0000 0.8819
vn -0.6344 -0.0000 0.7730
vn -0.7730 -0.0000 0.6344
vn -0.8819 -0.0000 0.4714
vn -0.9569 -0.0000 0.2903
vn -0.9952 -0.0000 0.0980
vn -0.9952 -0.0000 -0.0980
vn -0.9569 -0.0000 -0.2903
vn -0.8819 -0.0000 -0.4714
vn -0.7730 -0.0000 -0.6344
vn -0.6344 -0.0000 -0.7730
vn -0.4714 -0.0000 -0.8819
vn -0.2903 -0.0000 -0.9569
vn 0.2903 -0.0000 -0.9569
vn -0.0000 1.0000 -0.0000
vn 0.0980 -0.0000 -0.9952
vn 0.0693 -0.7071 -0.7037
vn 0.0693 0.7071 -0.7037
vn 0.2053 -0.7071 -0.6767
vn 0.2053 0.7071 -0.6767
vn 0.3333 -0.7071 -0.6236
vn 0.3333 0.7071 -0.6236
vn 0.4486 -0.7071 -0.5466
vn 0.4486 0.7071 -0.5466
vn 0.5466 -0.7071 -0.4486
vn 0.5466 0.7071 -0.4486
vn 0.6236 -0.7071 -0.3333
vn 0.6236 0.7071 -0.3333
vn 0.6767 -0.7071 -0.2053
vn 0.6767 0.7071 -0.2053
vn 0.7037 -0.7071 -0.0693
vn 0.7037 0.7071 -0.0693
vn 0.7037 -0.7071 0.0693
vn 0.7037 0.7071 0.0693
vn 0.6767 -0.7071 0.2053
vn 0.6767 0.7071 0.2053
vn 0.6236 -0.7071 0.3333
vn 0.6236 0.7071 0.3333
vn 0.5466 -0.7071 0.4486
vn 0.5466 0.7071 0.4486
vn 0.4486 -0.7071 0.5466
vn 0.4486 0.7071 0.5466
vn 0.3333 -0.7071 0.6236
vn 0.3333 0.7071 0.6236
vn 0.2053 -0.7071 0.6767
vn 0.2053 0.7071 0.6767
vn 0.0693 -0.7071 0.7037
vn 0.0693 0.7071 0.7037
vn -0.0693 -0.7071 0.7037
vn -0.0693 0.7071 0.7037
vn -0.2053 -0.7071 0.6767
vn -0.2053 0.7071 0.6767
vn -0.3333 -0.7071 0.6236
vn -0.3333 0.7071 0.6236
vn -0.4486 -0.7071 0.5466
vn -0.4486 0.7071 0.5466
vn -0.5466 -0.7071 0.4486
vn -0.5466 0.7071 0.4486
vn -0.6236 -0.7071 0.3333
vn -0.6236 0.7071 0.3333
vn -0.6767 -0.7071 0.2053
vn -0.6767 0.7071 0.2053
vn -0.7037 -0.7071 0.0693
vn -0.7037 0.7071 0.0693
vn -0.7037 -0.7071 -0.0693
vn -0.7037 0.7071 -0.0693
vn -0.6767 -0.7071 -0.2053
vn -0.6767 0.7071 -0.2053
vn -0.6236 -0.7071 -0.3333
vn -0.6236 0.7071 -0.3333
vn -0.5466 -0.7071 -0.4486
vn -0.5466 0.7071 -0.4486
vn -0.4486 -0.7071 -0.5466
vn -0.4486 0.7071 -0.5466
vn -0.3333 -0.7071 -0.6236
vn -0.3333 0.7071 -0.6236
vn -0.2053 -0.7071 -0.6767
vn -0.2053 0.7071 -0.6767
vn -0.0693 -0.7071 -0.7037
vn -0.0693 0.7071 -0.7037
vn -0.0000 -1.0000 -0.0000
vt 0.750000 0.468318
vt 0.000000 0.522477
vt 1.000000 0.522477
vt 0.750000 0.490000
vt 0.250000 0.468318
vt 0.000000 0.977523
vt 1.000000 0.977523
vt 0.250000 0.490000
vt 0.792592 0.464123
vt 0.968750 0.522477
vt 0.796822 0.485388
vt 0.292592 0.464123
vt 0.968750 0.977523
vt 0.296822 0.485388
vt 0.833546 0.451699
vt 0.937500 0.522477
vt 0.841844 0.471731
vt 0.333546 0.451699
vt 0.937500 0.977523
vt 0.341844 0.471731
vt 0.871291 0.431525
vt 0.906250 0.522477
vt 0.883337 0.449553
vt 0.371291 0.431525
vt 0.906250 0.977523
vt 0.383337 0.449553
vt 0.904374 0.404374
vt 0.875000 0.522477
vt 0.919706 0.419706
vt 0.404374 0.404374
vt 0.875000 0.977523
vt 0.419706 0.419706
vt 0.931525 0.371291
vt 0.843750 0.522477
vt 0.949553 0.383337
vt 0.431524 0.371291
vt 0.843750 0.977523
vt 0.449553 0.383337
vt 0.951699 0.333546
vt 0.812500 0.522477
vt 0.971731 0.341844
vt 0.451699 0.333547
vt 0.812500 0.977523
vt 0.471731 0.341844
vt 0.964123 0.292592
vt 0.781250 0.522477
vt 0.985388 0.296822
vt 0.464123 0.292592
vt 0.781250 0.977523
vt 0.485388 0.296822
vt 0.968318 0.250000
vt 0.750000 0.522477
vt 0.990000 0.250000
vt 0.468318 0.250000
vt 0.750000 0.977523
vt 0.490000 0.250000
vt 0.964123 0.207408
vt 0.718750 0.522477
vt 0.985388 0.203178
vt 0.464123 0.207408
vt 0.718750 0.977523
vt 0.485388 0.203178
vt 0.951699 0.166453
vt 0.687500 0.522477
vt 0.971731 0.158156
vt 0.451699 0.166453
vt 0.687500 0.977523
vt 0.471731 0.158156
vt 0.931525 0.128709
vt 0.656250 0.522477
vt 0.949553 0.116663
vt 0.431524 0.128709
vt 0.656250 0.977523
vt 0.449553 0.116663
vt 0.904374 0.095626
vt 0.625000 0.522477
vt 0.919706 0.080294
vt 0.404374 0.095626
vt 0.625000 0.977523
vt 0.419706 0.080294
vt 0.871291 0.068475
vt 0.593750 0.522477
vt 0.883337 0.050447
vt 0.371291 0.068476
vt 0.593750 0.977523
vt 0.383337 0.050447
vt 0.833546 0.048301
vt 0.562500 0.522477
vt 0.841844 0.028269
vt 0.333547 0.048301
vt 0.562500 0.977523
vt 0.341844 0.028269
vt 0.792592 0.035877
vt 0.531250 0.522477
vt 0.796822 0.014612
vt 0.292592 0.035877
vt 0.531250 0.977523
vt 0.296822 0.014612
vt 0.750000 0.031682
vt 0.500000 0.522477
vt 0.750000 0.010000
vt 0.250000 0.031682
vt 0.500000 0.977523
vt 0.250000 0.010000
vt 0.707408 0.035877
vt 0.468750 0.522477
vt 0.703178 0.014612
vt 0.207408 0.035877
vt 0.468750 0.977523
vt 0.203178 0.014612
vt 0.666453 0.048301
vt 0.437500 0.522477
vt 0.658156 0.028269
vt 0.166453 0.048301
vt 0.437500 0.977523
vt 0.158156 0.028269
vt 0.628709 0.068476
vt 0.406250 0.522477
vt 0.616663 0.050447
vt 0.128709 0.068475
vt 0.406250 0.977523
vt 0.116663 0.050447
vt 0.595626 0.095626
vt 0.375000 0.522477
vt 0.580294 0.080294
vt 0.095626 0.095626
vt 0.375000 0.977523
vt 0.080294 0.080294
vt 0.568475 0.128709
vt 0.343750 0.522477
vt 0.550447 0.116663
vt 0.068475 0.128709
vt 0.343750 0.977523
vt 0.050447 0.116663
vt 0.548301 0.166453
vt 0.312500 0.522477
vt 0.528269 0.158156
vt 0.048301 0.166454
vt 0.312500 0.977523
vt 0.028269 0.158156
vt 0.535877 0.207408
vt 0.281250 0.522477
vt 0.514612 0.203178
vt 0.035877 0.207408
vt 0.281250 0.977523
vt 0.014612 0.203178
vt 0.531682 0.250000
vt 0.250000 0.522477
vt 0.510000 0.250000
vt 0.031682 0.250000
vt 0.250000 0.977523
vt 0.010000 0.250000
vt 0.535877 0.292592
vt 0.218750 0.522477
vt 0.514612 0.296822
vt 0.035877 0.292592
vt 0.218750 0.977523
vt 0.014612 0.296822
vt 0.548301 0.333547
vt 0.187500 0.522477
vt 0.528269 0.341844
vt 0.048301 0.333546
vt 0.187500 0.977523
vt 0.028269 0.341844
vt 0.568476 0.371291
vt 0.156250 0.522477
vt 0.550447 0.383337
vt 0.068476 0.371291
vt 0.156250 0.977523
vt 0.050447 0.383337
vt 0.595626 0.404374
vt 0.125000 0.522477
vt 0.580294 0.419706
vt 0.095626 0.404374
vt 0.125000 0.977523
vt 0.080294 0.419706
vt 0.628709 0.431525
vt 0.093750 0.522477
vt 0.616663 0.449553
vt 0.128709 0.431525
vt 0.093750 0.977523
vt 0.116663 0.449553
vt 0.666453 0.451699
vt 0.062500 0.522477
vt 0.658156 0.471731
vt 0.166453 0.451699
vt 0.062500 0.977523
vt 0.158156 0.471731
vt 0.707408 0.464123
vt 0.031250 0.522477
vt 0.703178 0.485388
vt 0.207408 0.464123
vt 0.031250 0.977523
vt 0.203178 0.485388
s 0
f 126/190/1 128/193/1 4/6/1 2/2/1
f 10/16/2 12/19/2 16/25/2 14/22/2
f 14/22/3 16/25/3 20/31/3 18/28/3
f 18/28/4 20/31/4 24/37/4 22/34/4
f 22/34/5 24/37/5 28/43/5 26/40/5
f 26/40/6 28/43/6 32/49/6 30/46/6
f 30/46/7 32/49/7 36/55/7 34/52/7
f 34/52/8 36/55/8 40/61/8 38/58/8
f 38/58/9 40/61/9 44/67/9 42/64/9
f 42/64/10 44/67/10 48/73/10 46/70/10
f 46/70/11 48/73/11 52/79/11 50/76/11
f 50/76/12 52/79/12 56/85/12 54/82/12
f 54/82/13 56/85/13 60/91/13 58/88/13
f 58/88/14 60/91/14 64/97/14 62/94/14
f 62/94/15 64/97/15 68/103/15 66/100/15
f 66/100/16 68/103/16 72/109/16 70/106/16
f 70/106/17 72/109/17 76/115/17 74/112/17
f 74/112/18 76/115/18 80/121/18 78/118/18
f 78/118/19 80/121/19 84/127/19 82/124/19
f 82/124/20 84/127/20 88/133/20 86/130/20
f 86/130/21 88/133/21 92/139/21 90/136/21
f 90/136/22 92/139/22 96/145/22 94/142/22
f 94/142/23 96/145/23 100/151/23 98/148/23
f 98/148/24 100/151/24 104/157/24 102/154/24
f 102/154/25 104/157/25 108/163/25 106/160/25
f 106/160/26 108/163/26 112/169/26 110/166/26
f 110/166/27 112/169/27 116/175/27 114/172/27
f 114/172/28 116/175/28 120/181/28 118/178/28
f 118/178/29 120/181/29 124/187/29 122/184/29
f 122/184/30 124/187/30 128/193/30 126/190/30
f 6/10/31 8/13/31 12/19/31 10/16/31
f 7/12/32 3/5/32 127/192/32 123/186/32 119/180/32 115/174/32 111/168/32 107/162/32 103/156/32 99/150/32 95/144/32 91/138/32 87/132/32 83/126/32 79/120/32 75/114/32 71/108/32 67/102/32 63/96/32 59/90/32 55/84/32 51/78/32 47/72/32 43/66/32 39/60/32 35/54/32 31/48/32 27/42/32 23/36/32 19/30/32 15/24/32 11/18/32
f 2/3/33 4/7/33 8/13/33 6/10/33
f 2/4/34 6/11/34 5/9/34 1/1/34
f 8/14/35 4/8/35 3/5/35 7/12/35
f 6/11/36 10/17/36 9/15/36 5/9/36
f 12/20/37 8/14/37 7/12/37 11/18/37
f 10/17/38 14/23/38 13/21/38 9/15/38
f 16/26/39 12/20/39 11/18/39 15/24/39
f 14/23/40 18/29/40 17/27/40 13/21/40
f 20/32/41 16/26/41 15/24/41 19/30/41
f 18/29/42 22/35/42 21/33/42 17/27/42
f 24/38/43 20/32/43 19/30/43 23/36/43
f 22/35/44 26/41/44 25/39/44 21/33/44
f 28/44/45 24/38/45 23/36/45 27/42/45
f 26/41/46 30/47/46 29/45/46 25/39/46
f 32/50/47 28/44/47 27/42/47 31/48/47
f 30/47/48 34/53/48 33/51/48 29/45/48
f 36/56/49 32/50/49 31/48/49 35/54/49
f 34/53/50 38/59/50 37/57/50 33/51/50
f 40/62/51 36/56/51 35/54/51 39/60/51
f 38/59/52 42/65/52 41/63/52 37/57/52
f 44/68/53 40/62/53 39/60/53 43/66/53
f 42/65/54 46/71/54 45/69/54 41/63/54
f 48/74/55 44/68/55 43/66/55 47/72/55
f 46/71/56 50/77/56 49/75/56 45/69/56
f 52/80/57 48/74/57 47/72/57 51/78/57
f 50/77/58 54/83/58 53/81/58 49/75/58
f 56/86/59 52/80/59 51/78/59 55/84/59
f 54/83/60 58/89/60 57/87/60 53/81/60
f 60/92/61 56/86/61 55/84/61 59/90/61
f 58/89/62 62/95/62 61/93/62 57/87/62
f 64/98/63 60/92/63 59/90/63 63/96/63
f 62/95/64 66/101/64 65/99/64 61/93/64
f 68/104/65 64/98/65 63/96/65 67/102/65
f 66/101/66 70/107/66 69/105/66 65/99/66
f 72/110/67 68/104/67 67/102/67 71/108/67
f 70/107/68 74/113/68 73/111/68 69/105/68
f 76/116/69 72/110/69 71/108/69 75/114/69
f 74/113/70 78/119/70 77/117/70 73/111/70
f 80/122/71 76/116/71 75/114/71 79/120/71
f 78/119/72 82/125/72 81/123/72 77/117/72
f 84/128/73 80/122/73 79/120/73 83/126/73
f 82/125/74 86/131/74 85/129/74 81/123/74
f 88/134/75 84/128/75 83/126/75 87/132/75
f 86/131/76 90/137/76 89/135/76 85/129/76
f 92/140/77 88/134/77 87/132/77 91/138/77
f 90/137/78 94/143/78 93/141/78 89/135/78
f 96/146/79 92/140/79 91/138/79 95/144/79
f 94/143/80 98/149/80 97/147/80 93/141/80
f 100/152/81 96/146/81 95/144/81 99/150/81
f 98/149/82 102/155/82 101/153/82 97/147/82
f 104/158/83 100/152/83 99/150/83 103/156/83
f 102/155/84 106/161/84 105/159/84 101/153/84
f 108/164/85 104/158/85 103/156/85 107/162/85
f 106/161/86 110/167/86 109/165/86 105/159/86
f 112/170/87 108/164/87 107/162/87 111/168/87
f 110/167/88 114/173/88 113/171/88 109/165/88
f 116/176/89 112/170/89 111/168/89 115/174/89
f 114/173/90 118/179/90 117/177/90 113/171/90
f 120/182/91 116/176/91 115/174/91 119/180/91
f 118/179/92 122/185/92 121/183/92 117/177/92
f 124/188/93 120/182/93 119/180/93 123/186/93
f 122/185/94 126/191/94 125/189/94 121/183/94
f 128/194/95 124/188/95 123/186/95 127/192/95
f 126/191/96 2/4/96 1/1/96 125/189/96
f 4/8/97 128/194/97 127/192/97 3/5/97
f 1/1/98 5/9/98 9/15/98 13/21/98 17/27/98 21/33/98 25/39/98 29/45/98 33/51/98 37/57/98 41/63/98 45/69/98 49/75/98 53/81/98 57/87/98 61/93/98 65/99/98 69/105/98 73/111/98 77/117/98 81/123/98 85/129/98 89/135/98 93/141/98 97/147/98 101/153/98 105/159/98 109/165/98 113/171/98 117/177/98 121/183/98 125/189/98
