# Blender 3.5.1
# www.blender.org
o ContainerConcrete
v -0.117054 0.774650 -0.588471
v -0.117054 -0.774650 -0.588471
v -0.229610 0.774650 -0.554328
v -0.229610 -0.774650 -0.554328
v -0.333342 0.774650 -0.498882
v -0.333342 -0.774650 -0.498882
v -0.424264 0.774650 -0.424264
v -0.424264 -0.774650 -0.424264
v -0.498882 0.774650 -0.333342
v -0.498882 -0.774650 -0.333342
v 0.498882 0.774650 -0.333342
v 0.498882 -0.774650 -0.333342
v 0.424264 0.774650 -0.424264
v 0.424264 -0.774650 -0.424264
v 0.333342 0.774650 -0.498882
v 0.333342 -0.774650 -0.498882
v 0.229610 0.774650 -0.554328
v 0.229610 -0.774650 -0.554328
v 0.117054 0.774650 -0.588471
v 0.117054 -0.774650 -0.588471
v 0.000000 -0.774650 -0.600000
v 0.000000 0.774650 -0.600000
v -0.498882 0.774650 0.333342
v -0.498882 -0.774650 0.333342
v -0.424264 0.774650 0.424264
v -0.424264 -0.774650 0.424264
v -0.333342 0.774650 0.498882
v -0.333342 -0.774650 0.498882
v -0.229610 0.774650 0.554328
v -0.229610 -0.774650 0.554328
v -0.117054 0.774650 0.588471
v -0.117054 -0.774650 0.588471
v -0.498882 0.774650 -0.333342
v -0.498882 -0.774650 -0.333342
v -0.554328 0.774650 -0.229610
v -0.554328 -0.774650 -0.229610
v -0.588471 0.774650 -0.117054
v -0.588471 -0.774650 -0.117054
v -0.600000 0.774650 -0.000000
v -0.600000 -0.774650 -0.000000
v -0.588471 0.774650 0.117054
v -0.588471 -0.774650 0.117054
v -0.554328 -0.774650 0.229610
v -0.554328 0.774650 0.229610
v 0.000000 0.774650 0.000000
v 0.000000 -0.774650 0.000000
v 0.000000 0.774650 0.000000
v 0.000000 -0.774650 0.000000
v 0.000000 0.774650 0.000000
v 0.000000 -0.774650 0.000000
v 0.000000 0.774650 0.000000
v 0.000000 -0.774650 0.000000
v 0.000000 0.774650 0.000000
v 0.000000 -0.774650 0.000000
v 0.000000 -0.774650 0.000000
v 0.000000 0.774650 0.000000
v 0.000000 0.774650 0.000000
v 0.000000 -0.774650 0.000000
v 0.000000 0.774650 0.000000
v 0.000000 -0.774650 0.000000
v 0.000000 0.774650 0.000000
v 0.000000 -0.774650 0.000000
v 0.000000 0.774650 0.000000
v 0.000000 -0.774650 0.000000
v 0.000000 -0.774650 0.000000
v 0.000000 0.774650 0.000000
vn 0.0980 -0.0000 -0.9952
vn 0.2903 -0.0000 -0.9569
vn 0.4714 -0.0000 -0.8819
vn 0.6344 -0.0000 -0.7730
vn 0.7730 -0.0000 -0.6344
vn -0.7730 -0.0000 -0.6344
vn -0.6344 -0.0000 -0.7730
vn -0.4714 -0.0000 -0.8819
vn -0.2903 -0.0000 -0.9569
vn -0.0980 -0.0000 -0.9952
vn 0.9569 -0.0000 -0.2903
vn 0.9952 -0.0000 -0.0980
vn 0.9952 -0.0000 0.0980
vn 0.9569 -0.0000 0.2903
vn 0.8819 -0.0000 0.4714
vn 0.8819 -0.0000 -0.4714
vn -0.0000 -1.0000 -0.0000
vn -0.0000 1.0000 -0.0000
vn -0.9808 -0.0000 -0.1951
vn -0.5556 -0.0000 0.8315
vt 0.937500 0.833333
vt 1.000000 0.833333
vt 0.937500 0.666667
vt 1.000000 0.666667
vt 0.906250 0.833333
vt 0.968750 0.833333
vt 0.906250 0.666667
vt 0.968750 0.666667
vt 0.875000 0.833333
vt 0.937500 0.833333
vt 0.875000 0.666667
vt 0.937500 0.666667
vt 0.843750 0.833333
vt 0.906250 0.833333
vt 0.843750 0.666667
vt 0.906250 0.666667
vt 0.875000 0.833333
vt 0.875000 0.666667
vt 0.125000 0.833333
vt 0.125000 0.666667
vt 0.093750 0.833333
vt 0.156250 0.833333
vt 0.093750 0.666667
vt 0.156250 0.666667
vt 0.062500 0.833333
vt 0.125000 0.833333
vt 0.062500 0.666667
vt 0.125000 0.666667
vt 0.031250 0.833333
vt 0.093750 0.833333
vt 0.031250 0.666667
vt 0.093750 0.666667
vt 0.000000 0.833333
vt 0.062500 0.833333
vt 0.000000 0.666667
vt 0.062500 0.666667
vt 0.031250 0.666667
vt 0.968750 0.666667
vt 0.031250 0.833333
vt 0.968750 0.833333
vt 1.000000 0.833333
vt 0.937500 0.833333
vt 1.000000 0.666667
vt 0.937500 0.666667
vt 0.906250 0.833333
vt 0.968750 0.833333
vt 0.906250 0.666667
vt 0.968750 0.666667
vt 0.875000 0.833333
vt 0.937500 0.833333
vt 0.875000 0.666667
vt 0.937500 0.666667
vt 0.843750 0.833333
vt 0.906250 0.833333
vt 0.906250 0.666667
vt 0.843750 0.666667
vt 0.875000 0.833333
vt 0.875000 0.666667
vt 0.125000 0.833333
vt 0.125000 0.666667
vt 0.093750 0.833333
vt 0.156250 0.833333
vt 0.093750 0.666667
vt 0.156250 0.666667
vt 0.062500 0.833333
vt 0.125000 0.833333
vt 0.062500 0.666667
vt 0.125000 0.666667
vt 0.031250 0.833333
vt 0.093750 0.833333
vt 0.093750 0.666667
vt 0.031250 0.666667
vt 0.062500 0.833333
vt 0.000000 0.833333
vt 0.000000 0.666667
vt 0.062500 0.666667
vt 0.968750 0.666667
vt 0.031250 0.666667
vt 0.968750 0.833333
vt 0.031250 0.833333
vt 1.000000 0.833333
vt 0.937500 0.833333
vt 1.000000 0.666667
vt 0.937500 0.666667
vt 0.906250 0.833333
vt 0.968750 0.833333
vt 0.906250 0.666667
vt 0.968750 0.666667
vt 0.875000 0.833333
vt 0.937500 0.833333
vt 0.875000 0.666667
vt 0.937500 0.666667
vt 0.843750 0.833333
vt 0.906250 0.833333
vt 0.906250 0.666667
vt 0.843750 0.666667
vt 0.875000 0.833333
vt 0.875000 0.666667
vt 0.125000 0.666667
vt 0.125000 0.833333
vt 0.093750 0.833333
vt 0.156250 0.833333
vt 0.093750 0.666667
vt 0.156250 0.666667
vt 0.062500 0.833333
vt 0.125000 0.833333
vt 0.062500 0.666667
vt 0.125000 0.666667
vt 0.031250 0.833333
vt 0.093750 0.833333
vt 0.093750 0.666667
vt 0.031250 0.666667
vt 0.062500 0.833333
vt 0.000000 0.833333
vt 0.000000 0.666667
vt 0.062500 0.666667
vt 0.968750 0.666667
vt 0.031250 0.666667
vt 0.968750 0.833333
vt 0.031250 0.833333
s 0
f 21/37/1 22/39/1 19/33/1 20/35/1
f 20/36/2 19/34/2 17/29/2 18/31/2
f 18/32/3 17/30/3 15/25/3 16/27/3
f 16/28/4 15/26/4 13/21/4 14/23/4
f 14/24/5 13/22/5 11/19/5 12/20/5
f 10/18/6 9/17/6 7/13/6 8/15/6
f 8/16/7 7/14/7 5/9/7 6/11/7
f 6/12/8 5/10/8 3/5/8 4/7/8
f 4/8/9 3/6/9 1/1/9 2/3/9
f 2/4/10 1/2/10 22/40/10 21/38/10
f 43/78/11 42/75/11 41/74/11 44/80/11
f 42/76/12 40/72/12 39/69/12 41/73/12
f 40/71/13 38/67/13 37/65/13 39/70/13
f 38/68/14 36/63/14 35/61/14 37/66/14
f 36/64/15 34/60/15 33/59/15 35/62/15
f 32/58/2 30/56/2 29/53/2 31/57/2
f 30/55/3 28/51/3 27/49/3 29/54/3
f 28/52/4 26/47/4 25/45/4 27/50/4
f 26/48/5 24/44/5 23/42/5 25/46/5
f 24/43/16 43/77/16 44/79/16 23/41/16
f 41/73/17 39/69/17 61/109/17 63/113/17
f 43/77/18 24/43/18 46/83/18 65/117/18
f 31/57/17 29/53/17 51/93/17 53/97/17
f 38/67/18 40/71/18 62/111/18 60/107/18
f 23/41/17 44/79/17 66/119/17 45/81/17
f 28/51/18 30/55/18 52/95/18 50/91/18
f 39/70/17 37/65/17 59/105/17 61/110/17
f 29/54/17 27/49/17 49/89/17 51/94/17
f 36/63/18 38/68/18 60/108/18 58/103/18
f 26/47/18 28/52/18 50/92/18 48/87/18
f 37/66/17 35/61/17 57/101/17 59/106/17
f 42/75/18 43/78/18 65/118/18 64/115/18
f 27/50/17 25/45/17 47/85/17 49/90/17
f 32/58/19 31/57/19 53/97/19 54/98/19
f 34/60/18 36/64/18 58/104/18 55/99/18
f 44/80/17 41/74/17 63/114/17 66/120/17
f 24/44/18 26/48/18 48/88/18 46/84/18
f 33/59/20 34/60/20 55/99/20 56/100/20
f 35/62/17 33/59/17 56/100/17 57/102/17
f 40/72/18 42/76/18 64/116/18 62/112/18
f 25/46/17 23/42/17 45/82/17 47/86/17
f 30/56/18 32/58/18 54/98/18 52/96/18
