# Blender 3.5.1
# www.blender.org
o Bottom
v 8.000000 -2.000000 0.000000
v 7.846282 -2.000000 1.560723
v 7.391036 -2.000000 3.061468
v 6.651757 -2.000000 4.444562
v 5.656854 -2.000000 5.656854
v 4.444562 -2.000000 6.651757
v 3.061468 -2.000000 7.391036
v 1.560723 -2.000000 7.846282
v -1.000000 -2.000000 0.000000
v -0.980785 -2.000000 0.195090
v -0.923880 -2.000000 0.382683
v -0.831470 -2.000000 0.555570
v -0.707107 -2.000000 0.707107
v -0.555570 -2.000000 0.831470
v -0.382683 -2.000000 0.923880
v -0.195090 -2.000000 0.980785
v 0.000000 -2.000000 1.000000
v 0.195090 -2.000000 0.980785
v 0.382683 -2.000000 0.923880
v 0.555570 -2.000000 0.831470
v 0.707107 -2.000000 0.707107
v 0.831470 -2.000000 0.555570
v 0.923880 -2.000000 0.382683
v 0.980785 -2.000000 0.195090
v 1.000000 -2.000000 0.000000
v 0.000000 -2.000000 8.000000
v -1.560723 -2.000000 7.846282
v -3.061468 -2.000000 7.391036
v -4.444562 -2.000000 6.651757
v -5.656854 -2.000000 5.656854
v -6.651757 -2.000000 4.444562
v -7.391036 -2.000000 3.061468
v -7.846282 -2.000000 1.560723
v -8.000000 -2.000000 0.000000
vn -0.0000 -1.0000 -0.0000
vt 1.000000 0.500000
vt 0.990393 0.402455
vt 0.961940 0.308658
vt 0.915735 0.222215
vt 0.853553 0.146447
vt 0.777785 0.084265
vt 0.691342 0.038060
vt 0.597545 0.009607
vt 0.437500 0.500000
vt 0.438701 0.487807
vt 0.442258 0.476082
vt 0.448033 0.465277
vt 0.455806 0.455806
vt 0.465277 0.448033
vt 0.476082 0.442258
vt 0.487807 0.438701
vt 0.500000 0.437500
vt 0.512193 0.438701
vt 0.523918 0.442258
vt 0.534723 0.448033
vt 0.544194 0.455806
vt 0.551967 0.465277
vt 0.557742 0.476082
vt 0.561299 0.487807
vt 0.562500 0.500000
vt 0.500000 0.000000
vt 0.402455 0.009607
vt 0.308658 0.038060
vt 0.222215 0.084265
vt 0.146447 0.146447
vt 0.084265 0.222215
vt 0.038060 0.308658
vt 0.009607 0.402455
vt 0.000000 0.500000
s 0
f 10/10/1 11/11/1 32/32/1 33/33/1
f 18/18/1 19/19/1 7/7/1 8/8/1
f 11/11/1 12/12/1 31/31/1 32/32/1
f 19/19/1 20/20/1 6/6/1 7/7/1
f 12/12/1 13/13/1 30/30/1 31/31/1
f 20/20/1 21/21/1 5/5/1 6/6/1
f 13/13/1 14/14/1 29/29/1 30/30/1
f 21/21/1 22/22/1 4/4/1 5/5/1
f 14/14/1 15/15/1 28/28/1 29/29/1
f 22/22/1 23/23/1 3/3/1 4/4/1
f 15/15/1 16/16/1 27/27/1 28/28/1
f 23/23/1 24/24/1 2/2/1 3/3/1
f 16/16/1 17/17/1 26/26/1 27/27/1
f 9/9/1 10/10/1 33/33/1 34/34/1
f 24/24/1 25/25/1 1/1/1 2/2/1
f 17/17/1 18/18/1 8/8/1 26/26/1
