# Blender 3.5.1
# www.blender.org
o Layer
v 7.391036 -2.000000 3.061468
v 6.651757 -2.000000 4.444562
v 5.656854 -2.000000 5.656854
v 4.444562 -2.000000 6.651757
v 3.061468 -2.000000 7.391036
v 1.560723 -2.000000 7.846282
v 0.000000 -2.000000 8.000000
v -1.560723 -2.000000 7.846282
v -1.000000 -2.000000 0.000000
v 1.000000 -2.000000 0.000000
v -3.061468 -2.000000 7.391036
v -4.444562 -2.000000 6.651757
v -5.656854 -2.000000 5.656854
v -6.651757 -2.000000 4.444562
v -7.391036 -2.000000 3.061468
v -7.846282 -2.000000 1.560723
v -8.000000 -2.000000 0.000000
v 7.846282 -2.000000 1.560723
v 8.000000 -2.000000 0.000000
v 7.391036 0.000000 3.061468
v 6.651757 0.000000 4.444562
v 5.656854 0.000000 5.656854
v 4.444562 0.000000 6.651757
v 3.061468 0.000000 7.391036
v 1.560723 0.000000 7.846282
v 0.000000 0.000000 8.000000
v -1.560723 0.000000 7.846282
v -1.000000 0.000000 0.000000
v 1.000000 0.000000 0.000000
v -3.061468 0.000000 7.391036
v -4.444562 0.000000 6.651757
v -5.656854 0.000000 5.656854
v -6.651757 0.000000 4.444562
v -7.391036 0.000000 3.061468
v -7.846282 0.000000 1.560723
v -8.000000 0.000000 0.000000
v 7.846282 0.000000 1.560723
v 8.000000 0.000000 0.000000
vn 0.6344 -0.0000 0.7730
vn -0.9952 -0.0000 0.0980
vn 0.4714 -0.0000 0.8819
vn -0.0000 -0.0000 -1.0000
vn 0.2903 -0.0000 0.9569
vn 0.0980 -0.0000 0.9952
vn -0.0980 -0.0000 0.9952
vn -0.2903 -0.0000 0.9569
vn -0.4714 -0.0000 0.8819
vn 0.9952 -0.0000 0.0980
vn -0.6344 -0.0000 0.7730
vn 0.9569 -0.0000 0.2903
vn -0.7730 -0.0000 0.6344
vn 0.8819 -0.0000 0.4714
vn -0.8819 -0.0000 0.4714
vn 0.7730 -0.0000 0.6344
vn -0.9569 -0.0000 0.2903
vt -1.119322 0.001480
vt -1.810869 0.001480
vt 3.239839 0.001480
vt -2.417015 0.001480
vt 2.633693 0.001480
vt 1.942146 0.001480
vt 1.191773 0.001480
vt 0.411412 0.001480
vt -0.368949 0.001480
vt -0.088588 0.001480
vt 0.911412 0.001480
vt -1.119322 0.001480
vt -1.810869 0.001480
vt -2.417015 0.001480
vt -1.810869 0.001480
vt -1.119322 0.001480
vt -0.368949 0.001480
vt 0.411412 0.001480
vt -3.588588 0.001480
vt -0.368949 0.001480
vt 4.411412 0.001480
vt 0.411412 0.001480
vt -1.119322 1.001480
vt -1.810869 1.001480
vt 3.239839 1.001480
vt -2.417015 1.001480
vt 2.633693 1.001480
vt 1.942146 1.001480
vt 1.191773 1.001480
vt 0.411412 1.001480
vt -0.368949 1.001480
vt -0.088588 1.001480
vt 0.911412 1.001480
vt -1.119322 1.001480
vt -1.810869 1.001480
vt -2.417015 1.001480
vt -1.810869 1.001480
vt -1.119322 1.001480
vt -0.368949 1.001480
vt 0.411412 1.001480
vt -3.588588 1.001480
vt -0.368949 1.001480
vt 4.411412 1.001480
vt 0.411412 1.001480
s 0
f 3/3/1 22/25/1 23/27/1 4/5/1
f 16/17/2 35/39/2 36/40/2 17/18/2
f 4/5/3 23/27/3 24/28/3 5/6/3
f 10/11/4 29/33/4 38/43/4 19/21/4
f 5/6/5 24/28/5 25/29/5 6/7/5
f 9/10/4 17/19/4 36/41/4 28/32/4
f 6/7/6 25/29/6 26/30/6 7/8/6
f 7/8/7 26/30/7 27/31/7 8/9/7
f 8/9/8 27/31/8 30/34/8 11/12/8
f 11/12/9 30/34/9 31/35/9 12/13/9
f 19/22/10 38/44/10 37/42/10 18/20/10
f 12/13/11 31/35/11 32/36/11 13/14/11
f 18/20/12 37/42/12 20/23/12 1/1/12
f 13/14/13 32/36/13 33/37/13 14/15/13
f 1/1/14 20/23/14 21/24/14 2/2/14
f 14/15/15 33/37/15 34/38/15 15/16/15
f 2/2/16 21/24/16 22/26/16 3/4/16
f 15/16/17 34/38/17 35/39/17 16/17/17
